<svg xmlns="http://www.w3.org/2000/svg" width="16" height="16" viewBox="0 0 16 16" fill="none">
  <path d="M4.88125 7.47599C6.47225 7.47599 7.76225 6.18599 7.76225 4.59499C7.76225 3.00399 6.47225 1.71399 4.88125 1.71399C3.29025 1.71399 2 3.00399 2 4.59499C2 6.18599 3.29025 7.47599 4.88125 7.47599ZM4.88125 3.80949C4.98442 3.80951 5.08658 3.82984 5.18189 3.86934C5.2772 3.90884 5.36379 3.96672 5.43673 4.03968C5.50967 4.11265 5.56753 4.19926 5.607 4.29458C5.64646 4.38991 5.66677 4.49207 5.66675 4.59524C5.66673 4.69841 5.6464 4.80057 5.6069 4.89588C5.5674 4.99119 5.50952 5.07778 5.43656 5.15072C5.36359 5.22366 5.27698 5.28152 5.18166 5.32099C5.08633 5.36045 4.98417 5.38076 4.881 5.38074C4.67264 5.38074 4.47281 5.29797 4.32548 5.15064C4.17815 5.0033 4.09538 4.80348 4.09538 4.59511C4.09538 4.38675 4.17815 4.18693 4.32548 4.03959C4.47281 3.89226 4.67289 3.80949 4.88125 3.80949ZM11.6912 8.52399C10.1003 8.52399 8.81025 9.81399 8.81025 11.405C8.81025 12.996 10.1003 14.286 11.6912 14.286C13.2822 14.286 14.5723 12.996 14.5723 11.405C14.5723 9.81399 13.2822 8.52399 11.6912 8.52399ZM11.6912 12.1905C11.4829 12.1905 11.2831 12.1077 11.1357 11.9604C10.9884 11.8131 10.9056 11.6132 10.9056 11.4049C10.9056 11.1965 10.9884 10.9967 11.1357 10.8493C11.2831 10.702 11.4829 10.6192 11.6912 10.6192C11.8996 10.6192 12.0994 10.702 12.2468 10.8493C12.3941 10.9967 12.4769 11.1965 12.4769 11.4049C12.4769 11.6132 12.3941 11.8131 12.2468 11.9604C12.0994 12.1077 11.8996 12.1905 11.6912 12.1905ZM11.8375 1.71449L2.0005 14.286H4.6615L14.4987 1.71449H11.8375Z" fill="#B1BAD3"/>
</svg>