<svg xmlns="http://www.w3.org/2000/svg" width="14" height="14" viewBox="0 0 14 14" fill="none">
  <g clip-path="url(#clip0_49_3173)">
    <path d="M2.11401 5.83098V6.71298H2.74401C2.75101 6.61498 2.75101 6.53798 2.75801 6.45398H3.18501C2.83501 7.01398 2.47101 7.55298 2.44301 8.23198H3.31101C3.31801 8.12698 3.32501 8.02898 3.34601 7.93798C3.44401 7.39898 3.67501 6.90898 3.95501 6.44698C4.07401 6.24398 4.01801 6.04798 4.03201 5.83798H2.11401V5.83098ZM9.87001 6.71298H10.507C10.514 6.61498 10.514 6.53098 10.521 6.45398H10.948C10.353 7.46198 10.171 7.89598 10.234 8.23198H11.081C11.095 8.11998 11.109 8.00798 11.123 7.90298C11.221 7.39898 11.438 6.92998 11.697 6.50298C11.83 6.28598 11.802 6.07598 11.802 5.85198H9.87701C9.87001 6.13898 9.87001 6.41898 9.87001 6.71298ZM6.13901 8.58198H7.25201C7.29401 8.35798 7.31501 8.12698 7.37101 7.90998C7.51801 7.33598 7.76301 6.80398 8.08501 6.30698C8.26001 6.03398 8.19701 5.76798 8.20401 5.48798H5.69101V6.54498C5.69101 6.57298 5.74001 6.62198 5.77501 6.62198C6.02001 6.62898 6.27201 6.62198 6.52401 6.62198C6.53101 6.48898 6.53101 6.37698 6.53801 6.26498H7.10501C6.65701 6.98598 6.18801 7.68598 6.13901 8.58198Z" fill="white"/>
    <path d="M2.50605 10.92H0.994048C0.602048 10.92 0.399048 10.717 0.399048 10.339V3.74499C0.399048 3.35299 0.588048 3.16399 0.980048 3.14999H2.49205C2.49205 3.07999 2.49905 3.03099 2.49905 2.96799V1.53999C2.50605 0.902994 2.94005 0.468994 3.57005 0.468994H10.332C10.976 0.468994 11.403 0.902994 11.403 1.54699V3.14999H12.439C12.621 3.14999 12.796 3.14299 12.978 3.14999C13.307 3.15699 13.51 3.35999 13.51 3.68199V10.367C13.51 10.717 13.3 10.913 12.936 10.913H11.396V12.495C11.396 13.16 10.969 13.58 10.318 13.58H3.58405C2.91905 13.58 2.49905 13.153 2.49905 12.481V11.088C2.50605 11.046 2.50605 10.997 2.50605 10.92ZM1.36505 4.12999V9.96099H4.78105V4.12999H1.36505ZM9.13505 9.96099H12.411C12.544 9.96099 12.558 9.91899 12.558 9.80699V4.11599H9.13505V9.96099ZM8.66605 4.12999H5.25705V9.95399H8.65905V4.12999H8.66605Z" fill="#B1BAD3"/>
    <path d="M2.11401 5.83098H4.03901C4.03201 6.04098 4.08101 6.23698 3.96201 6.43998C3.68201 6.90198 3.45101 7.39198 3.35301 7.93098C3.33901 8.02898 3.32501 8.11998 3.31801 8.22498H2.44301C2.47101 7.53898 2.82801 7.00698 3.18501 6.44698H2.75801C2.75101 6.53098 2.75101 6.61498 2.74401 6.70598H2.11401V5.83098ZM9.87001 6.71298V5.84498H11.795C11.795 6.06898 11.83 6.27898 11.69 6.49598C11.417 6.92998 11.214 7.39198 11.116 7.89598C11.102 8.00098 11.088 8.11298 11.074 8.22498H10.227C10.178 7.90298 10.346 7.46198 10.941 6.44698H10.514C10.507 6.52398 10.507 6.61498 10.5 6.70598H9.87001V6.71298ZM6.13901 8.58198C6.18801 7.68598 6.65001 6.98598 7.11201 6.26498H6.54501C6.53801 6.37698 6.53801 6.48898 6.53101 6.62198H5.78201C5.75401 6.62198 5.69801 6.57298 5.69801 6.54498C5.69101 6.19498 5.69801 5.84498 5.69801 5.48798H8.21101C8.19701 5.76798 8.26001 6.03398 8.09201 6.30698C7.77701 6.80398 7.52501 7.33598 7.37801 7.90998C7.32901 8.12698 7.30101 8.35098 7.25901 8.58198H6.13901Z" fill="#B1BAD3"/>
  </g>
  <defs>
    <clipPath id="clip0_49_3173">
      <rect width="14" height="14" fill="white"/>
    </clipPath>
  </defs>
</svg>