<svg xmlns="http://www.w3.org/2000/svg" xmlns:xlink="http://www.w3.org/1999/xlink" viewBox="0,0,256,256" width="24px" height="24px"><g fill="#d9d9d9" fill-rule="nonzero" stroke="none" stroke-width="1" stroke-linecap="butt" stroke-linejoin="miter" stroke-miterlimit="10" stroke-dasharray="" stroke-dashoffset="0" font-family="none" font-weight="none" font-size="none" text-anchor="none" style="mix-blend-mode: normal"><g transform="scale(10.66667,10.66667)"><path d="M12,1c-6.065,0 -11,4.935 -11,11c0,6.065 4.935,11 11,11c6.065,0 11,-4.935 11,-11c0,-6.065 -4.935,-11 -11,-11zM7,7h10v2h-4v1.02734c2.201,0.112 5,0.61166 5,1.97266c0,1.361 -2.799,1.85966 -5,1.97266v4.02734h-2v-4.02734c-2.201,-0.113 -5,-0.61266 -5,-1.97266c0,-1.36 2.799,-1.85966 5,-1.97266v-1.02734h-4zM11,11.02734c-2.423,0.125 -3.88091,0.67914 -4.00391,0.99414c0.14,0.314 1.98191,0.97852 5.00391,0.97852c2.963,0 4.79019,-0.639 4.99219,-1c-0.178,-0.318 -1.62219,-0.85066 -3.99219,-0.97266v0.97266h-2z"></path></g></g></svg>