<svg xmlns="http://www.w3.org/2000/svg" width="16" height="16" viewBox="0 0 16 16" fill="none">
  <g clip-path="url(#clip0_49_2819)">
    <path fill-rule="evenodd" clip-rule="evenodd" d="M10.5126 2.15326C11.2163 2.15326 11.8106 2.62301 12.0013 3.27676L12.9113 6.47476H3.0633L3.9733 3.27676L3.9758 3.26576C4.07013 2.94472 4.26587 2.66285 4.53373 2.46231C4.8016 2.26177 5.12719 2.15335 5.4618 2.15326H10.5126ZM15.3721 7.69251H0.6153C0.454306 7.69576 0.301001 7.76199 0.188291 7.87699C0.0755814 7.992 0.0124512 8.14661 0.0124512 8.30764C0.0124512 8.46866 0.0755814 8.62327 0.188291 8.73828C0.301001 8.85328 0.454306 8.91952 0.6153 8.92276C2.83355 9.24051 5.3953 9.42201 8.00005 9.42201C10.6048 9.42201 13.1661 9.24051 15.6741 8.88926L15.5246 8.90626C15.6717 8.87203 15.8011 8.78486 15.8881 8.66135C15.9751 8.53784 16.0137 8.38664 15.9964 8.23655C15.9791 8.08647 15.9071 7.948 15.7943 7.84753C15.6815 7.74706 15.5356 7.69161 15.3846 7.69176L15.3721 7.69251ZM8.37105 10.7685H7.60855C6.0248 10.3898 4.1893 10.4635 2.2218 10.7685V11.3938L2.9843 11.5388C2.9843 11.5388 2.9843 13.847 5.29255 13.847C6.8483 13.847 7.3543 12.4513 7.51955 11.5388H8.4498C8.61505 12.4513 9.12105 13.847 10.6768 13.847C12.9851 13.847 12.9851 11.5388 12.9851 11.5388L13.7476 11.3938V10.7685C11.8181 10.4585 9.99555 10.3973 8.37105 10.7685Z" fill="#B1BAD3"/>
  </g>
  <defs>
    <clipPath id="clip0_49_2819">
      <rect width="16" height="16" fill="white"/>
    </clipPath>
  </defs>
</svg>