<svg xmlns="http://www.w3.org/2000/svg" width="14" height="14" viewBox="0 0 14 14" fill="none">
  <path d="M6.26742 13.2344H2.59942C2.19473 13.2344 1.86726 12.9062 1.86726 12.502V8.10162C1.46258 8.10162 1.13489 7.7735 1.13489 7.36925V5.89881C1.13489 5.49412 1.46301 5.16644 1.86726 5.16644H6.26764V13.2344H6.26742ZM12.1328 5.166H7.73217V13.2344H11.4002C11.8049 13.2344 12.1328 12.9062 12.1328 12.502V8.10162C12.5375 8.10162 12.8651 7.7735 12.8651 7.36925V5.89881C12.8651 5.49412 12.537 5.16644 12.1328 5.16644V5.166ZM9.93476 0.765625C8.31361 0.765625 7.00001 2.07987 7.00001 3.70081H9.9352C10.3399 3.70081 10.6678 3.37269 10.6678 2.96844V1.498C10.6678 1.09331 10.3397 0.765625 9.9352 0.765625H9.93476ZM4.06439 0.765625C3.6597 0.765625 3.33201 1.09375 3.33201 1.498V2.96844C3.33201 3.37312 3.66014 3.70081 4.06439 3.70081H7.00001C7.00001 2.07944 5.68533 0.765625 4.06439 0.765625Z" fill="#B1BAD3"/>
</svg>